<svg id="Camada_2" data-name="Camada 2" xmlns="http://www.w3.org/2000/svg" viewBox="0 0 42 44"><defs><style>.cls-1{fill:#22C26C;}</style></defs><title>bugasIcon</title><polygon class="cls-1" points="36 10 36 4 40 4 40 2 36 2 34 2 34 4 34 8 32 8 32 10 34 10 36 10"/><rect class="cls-1" x="30" width="2" height="2"/><rect class="cls-1" x="12" y="2" width="2" height="2"/><polygon class="cls-1" points="8 8 8 4 8 2 6 2 2 2 2 4 6 4 6 10 8 10 10 10 10 8 8 8"/><polygon class="cls-1" points="40 24 40 18 38 18 36 18 36 14 34 14 34 12 32 12 32 10 30 10 30 6 28 6 28 4 14 4 14 6 12 6 12 10 10 10 10 12 8 12 8 14 6 14 6 18 4 18 2 18 2 24 0 24 0 26 2 26 4 26 4 20 6 20 6 30 4 30 4 40 6 40 8 40 8 44 10 44 10 38 8 38 6 38 6 32 8 32 8 34 10 34 10 36 14 36 14 38 20 38 20 10 22 10 22 38 28 38 28 36 32 36 32 34 34 34 34 32 36 32 36 38 34 38 32 38 32 44 34 44 34 40 36 40 38 40 38 30 36 30 36 20 38 20 38 26 40 26 42 26 42 24 40 24"/><rect class="cls-1" x="28" y="2" width="2" height="2"/><rect class="cls-1" x="10" width="2" height="2"/></svg>