<svg width="26" height="28" viewBox="0 0 26 28" fill="none" xmlns="http://www.w3.org/2000/svg">
<path d="M25 12.0006H23V10.0006H25C25.2652 10.0006 25.5196 10.1059 25.7071 10.2934C25.8946 10.481 26 10.7353 26 11.0006C26 11.2658 25.8946 11.5201 25.7071 11.7077C25.5196 11.8952 25.2652 12.0006 25 12.0006ZM1 10.0006C0.734784 10.0006 0.48043 10.1059 0.292893 10.2934C0.105357 10.481 0 10.7353 0 11.0006C0 11.2658 0.105357 11.5201 0.292893 11.7077C0.48043 11.8952 0.734784 12.0006 1 12.0006H3V10.0006H1ZM23 17.0006C23 17.3381 22.9825 17.6718 22.95 18.0006H25C25.2652 18.0006 25.5196 18.1059 25.7071 18.2934C25.8946 18.481 26 18.7353 26 19.0006C26 19.2658 25.8946 19.5201 25.7071 19.7077C25.5196 19.8952 25.2652 20.0006 25 20.0006H22.54C21.9019 22.031 20.6327 23.8048 18.9169 25.0641C17.2011 26.3235 15.1283 27.0025 13 27.0025C10.8717 27.0025 8.79888 26.3235 7.0831 25.0641C5.36733 23.8048 4.09808 22.031 3.46 20.0006H1C0.734784 20.0006 0.48043 19.8952 0.292893 19.7077C0.105357 19.5201 0 19.2658 0 19.0006C0 18.7353 0.105357 18.481 0.292893 18.2934C0.48043 18.1059 0.734784 18.0006 1 18.0006H3.05C3.0175 17.6718 3 17.3381 3 17.0006V16.0006H1C0.734784 16.0006 0.48043 15.8952 0.292893 15.7077C0.105357 15.5201 0 15.2658 0 15.0006C0 14.7353 0.105357 14.481 0.292893 14.2934C0.48043 14.1059 0.734784 14.0006 1 14.0006H3V12.0006H23V14.0006H25C25.2652 14.0006 25.5196 14.1059 25.7071 14.2934C25.8946 14.481 26 14.7353 26 15.0006C26 15.2658 25.8946 15.5201 25.7071 15.7077C25.5196 15.8952 25.2652 16.0006 25 16.0006H23V17.0006ZM14 15.0006C14 14.7353 13.8946 14.481 13.7071 14.2934C13.5196 14.1059 13.2652 14.0006 13 14.0006C12.7348 14.0006 12.4804 14.1059 12.2929 14.2934C12.1054 14.481 12 14.7353 12 15.0006V23.0006C12 23.2658 12.1054 23.5201 12.2929 23.7077C12.4804 23.8952 12.7348 24.0006 13 24.0006C13.2652 24.0006 13.5196 23.8952 13.7071 23.7077C13.8946 23.5201 14 23.2658 14 23.0006V15.0006ZM5.73 4.14431C4.21341 5.74616 3.27088 7.80575 3.05 10.0006H22.95C22.7291 7.80575 21.7866 5.74616 20.27 4.14431L22.7075 1.70806C22.8004 1.61515 22.8741 1.50485 22.9244 1.38345C22.9747 1.26206 23.0006 1.13195 23.0006 1.00056C23.0006 0.869161 22.9747 0.739053 22.9244 0.61766C22.8741 0.496267 22.8004 0.385966 22.7075 0.293056C22.6146 0.200146 22.5043 0.126445 22.3829 0.0761627C22.2615 0.02588 22.1314 -2.76894e-09 22 0C21.8686 2.76894e-09 21.7385 0.02588 21.6171 0.0761627C21.4957 0.126445 21.3854 0.200146 21.2925 0.293056L18.7563 2.83056C17.073 1.63983 15.0619 1.00042 13 1.00042C10.9381 1.00042 8.92703 1.63983 7.24375 2.83056L4.7075 0.293056C4.51986 0.105415 4.26536 0 4 0C3.73464 0 3.48014 0.105415 3.2925 0.293056C3.10486 0.480697 2.99944 0.735192 2.99944 1.00056C2.99944 1.26592 3.10486 1.52042 3.2925 1.70806L5.73 4.14431Z" fill="#22C26C"/>
</svg>
