<svg width="84" height="71" viewBox="0 0 84 71" fill="none" xmlns="http://www.w3.org/2000/svg">
<path d="M78.96 0H5.04C3.70331 0 2.42137 0.530998 1.47618 1.47618C0.530999 2.42136 0 3.70331 0 5.04V65.52C0 66.8567 0.530999 68.1386 1.47618 69.0838C2.42137 70.029 3.70331 70.56 5.04 70.56H78.96C80.2967 70.56 81.5786 70.029 82.5238 69.0838C83.469 68.1386 84 66.8567 84 65.52V5.04C84 3.70331 83.469 2.42136 82.5238 1.47618C81.5786 0.530998 80.2967 0 78.96 0ZM5.04 3.36H78.96C79.4056 3.36 79.8329 3.537 80.1479 3.85206C80.463 4.16712 80.64 4.59444 80.64 5.04V52.248L66.8262 38.4342C66.358 37.9643 65.8016 37.5915 65.189 37.3372C64.5763 37.0828 63.9195 36.9518 63.2562 36.9518C62.5929 36.9518 61.9361 37.0828 61.3234 37.3372C60.7108 37.5915 60.1544 37.9643 59.6862 38.4342L50.0976 48.0228L30.4332 28.3542C29.965 27.8843 29.4086 27.5115 28.796 27.2571C28.1833 27.0028 27.5265 26.8718 26.8632 26.8718C26.1999 26.8718 25.5431 27.0028 24.9304 27.2571C24.3178 27.5115 23.7614 27.8843 23.2932 28.3542L3.36 48.3V5.04C3.36 4.59444 3.537 4.16712 3.85206 3.85206C4.16712 3.537 4.59444 3.36 5.04 3.36ZM3.36 65.52V53.0628L25.6914 30.7314C25.8474 30.5752 26.0327 30.4513 26.2367 30.3667C26.4406 30.2822 26.6592 30.2387 26.88 30.2387C27.1008 30.2387 27.3194 30.2822 27.5233 30.3667C27.7273 30.4513 27.9126 30.5752 28.0686 30.7314L64.5372 67.2H5.04C4.59444 67.2 4.16712 67.023 3.85206 66.7079C3.537 66.3929 3.36 65.9656 3.36 65.52ZM78.96 67.2H69.3L52.5 50.4L62.0886 40.8114C62.2446 40.6552 62.4299 40.5313 62.6339 40.4467C62.8378 40.3622 63.0564 40.3187 63.2772 40.3187C63.498 40.3187 63.7166 40.3622 63.9205 40.4467C64.1245 40.5313 64.3098 40.6552 64.4658 40.8114L80.64 56.9982V65.52C80.64 65.9656 80.463 66.3929 80.1479 66.7079C79.8329 67.023 79.4056 67.2 78.96 67.2ZM50.4 23.52C50.4 22.8555 50.5971 22.2058 50.9663 21.6533C51.3355 21.1007 51.8602 20.6701 52.4742 20.4158C53.0881 20.1615 53.7637 20.0949 54.4155 20.2246C55.0673 20.3542 55.666 20.6742 56.1359 21.1441C56.6058 21.614 56.9258 22.2127 57.0554 22.8645C57.1851 23.5163 57.1185 24.1919 56.8642 24.8058C56.6099 25.4198 56.1793 25.9445 55.6267 26.3137C55.0742 26.6829 54.4245 26.88 53.76 26.88C52.8689 26.88 52.0142 26.526 51.3841 25.8959C50.754 25.2658 50.4 24.4111 50.4 23.52Z" fill="#4C4463"/>
</svg>
