<svg width="29" height="13" viewBox="0 0 29 13" fill="none" xmlns="http://www.w3.org/2000/svg">
<path d="M14.0115 6.71895L0.202343 0.528666C0.138193 0.499909 0.087307 0.465769 0.0525875 0.428197C0.0178699 0.390624 -1.53145e-08 0.350353 -1.35368e-08 0.309685C-1.17591e-08 0.269016 0.0178699 0.228746 0.0525875 0.191173C0.087307 0.1536 0.138193 0.119461 0.202343 0.0907035C0.266493 0.0619465 0.342651 0.0391352 0.426468 0.0235721C0.510284 0.00800888 0.600121 -1.2414e-06 0.690842 -1.23743e-06C0.781565 -1.23347e-06 0.871399 0.00800889 0.955215 0.0235721C1.03903 0.0391353 1.11519 0.0619465 1.17934 0.0907036L14.5 6.062L27.8207 0.0907047C27.9502 0.0326273 28.1259 -3.82066e-08 28.3092 -3.01977e-08C28.4924 -2.21887e-08 28.6681 0.0326274 28.7977 0.0907048C28.9272 0.148782 29 0.227552 29 0.309686C29 0.39182 28.9272 0.47059 28.7977 0.528667L14.9885 6.71895C14.9244 6.74772 14.8482 6.77055 14.7644 6.78613C14.6806 6.8017 14.5907 6.80972 14.5 6.80972C14.4093 6.80972 14.3194 6.8017 14.2356 6.78613C14.1518 6.77055 14.0756 6.74772 14.0115 6.71895ZM14.9885 12.9092L28.7977 6.71895C28.9272 6.66087 29 6.5821 29 6.49996C29 6.41783 28.9272 6.33906 28.7977 6.28098C28.6681 6.22291 28.4924 6.19028 28.3092 6.19028C28.1259 6.19028 27.9502 6.22291 27.8207 6.28098L14.5 12.2523L1.17934 6.28098C1.11519 6.25223 1.03903 6.22941 0.955215 6.21385C0.871399 6.19829 0.781564 6.19028 0.690841 6.19028C0.60012 6.19028 0.510284 6.19829 0.426468 6.21385C0.342651 6.22941 0.266493 6.25223 0.202343 6.28098C0.138193 6.30974 0.0873067 6.34388 0.0525872 6.38145C0.0178697 6.41902 -2.82345e-07 6.45929 -2.84122e-07 6.49996C-2.859e-07 6.54063 0.0178697 6.5809 0.0525872 6.61848C0.0873067 6.65605 0.138193 6.69019 0.202343 6.71894L14.0115 12.9092C14.0756 12.938 14.1518 12.9608 14.2356 12.9764C14.3194 12.992 14.4093 13 14.5 13C14.5907 13 14.6806 12.992 14.7644 12.9764C14.8482 12.9608 14.9244 12.938 14.9885 12.9092Z" fill="rgba(231,231,231,0.788)"/>
</svg>
